<?xml version="1.0" encoding="UTF-8" standalone="no"?>
<!DOCTYPE svg PUBLIC "-//W3C//DTD SVG 1.1//EN" "http://www.w3.org/Graphics/SVG/1.1/DTD/svg11.dtd">
<svg width="100%" height="100%" viewBox="0 0 132 104" version="1.1" xmlns="http://www.w3.org/2000/svg" xmlns:xlink="http://www.w3.org/1999/xlink" xml:space="preserve" xmlns:serif="http://www.serif.com/" style="fill-rule:evenodd;clip-rule:evenodd;stroke-linejoin:round;stroke-miterlimit:2;">
    <g transform="matrix(1,0,0,1,-1.28956,7.38454)">
        <g transform="matrix(54.1667,0,0,54.1667,1.30102,39.9479)">
            <path d="M0.25,-0.072C0.25,-0.065 0.252,-0.059 0.257,-0.055C0.261,-0.05 0.267,-0.047 0.275,-0.045L0.308,-0.039C0.32,-0.035 0.327,-0.029 0.327,-0.019C0.327,-0.013 0.325,-0.008 0.321,-0.005C0.317,-0.002 0.311,-0 0.302,-0L0.081,-0C0.072,-0 0.066,-0.002 0.062,-0.005C0.058,-0.008 0.056,-0.013 0.056,-0.019C0.056,-0.029 0.063,-0.035 0.076,-0.039L0.108,-0.045C0.116,-0.047 0.122,-0.05 0.127,-0.055C0.131,-0.059 0.133,-0.065 0.133,-0.072L0.133,-0.628C0.133,-0.635 0.131,-0.641 0.127,-0.645C0.122,-0.65 0.116,-0.653 0.108,-0.655L0.076,-0.661C0.063,-0.665 0.056,-0.672 0.056,-0.682C0.056,-0.688 0.058,-0.692 0.062,-0.695C0.066,-0.698 0.072,-0.7 0.081,-0.7L0.302,-0.7C0.311,-0.7 0.317,-0.698 0.321,-0.695C0.325,-0.692 0.327,-0.688 0.327,-0.682C0.327,-0.672 0.32,-0.665 0.308,-0.661L0.275,-0.655C0.267,-0.653 0.261,-0.65 0.257,-0.645C0.252,-0.641 0.25,-0.635 0.25,-0.628L0.25,-0.072Z" style="fill-rule:nonzero;"/>
        </g>
        <g transform="matrix(54.1667,0,0,54.1667,22.0469,39.9479)">
            <path d="M0.213,-0.451L0.213,-0.07C0.213,-0.061 0.214,-0.054 0.218,-0.049C0.221,-0.045 0.226,-0.042 0.233,-0.04L0.255,-0.035C0.265,-0.031 0.271,-0.026 0.271,-0.018C0.271,-0.006 0.263,-0 0.247,-0L0.068,-0C0.06,-0 0.055,-0.002 0.051,-0.005C0.047,-0.008 0.046,-0.012 0.046,-0.017C0.046,-0.021 0.047,-0.024 0.05,-0.028C0.053,-0.031 0.057,-0.033 0.063,-0.035L0.087,-0.04C0.093,-0.042 0.098,-0.045 0.102,-0.049C0.105,-0.054 0.107,-0.061 0.107,-0.07L0.107,-0.379C0.107,-0.387 0.105,-0.392 0.103,-0.396C0.1,-0.399 0.096,-0.401 0.09,-0.402L0.057,-0.403C0.05,-0.404 0.046,-0.406 0.044,-0.408C0.041,-0.411 0.04,-0.414 0.04,-0.418C0.04,-0.422 0.041,-0.426 0.044,-0.429C0.047,-0.432 0.052,-0.434 0.06,-0.437L0.143,-0.466C0.153,-0.47 0.161,-0.473 0.168,-0.475C0.175,-0.476 0.181,-0.477 0.187,-0.477C0.195,-0.477 0.202,-0.475 0.206,-0.47C0.21,-0.465 0.213,-0.459 0.213,-0.451ZM0.198,-0.344L0.178,-0.364L0.2,-0.383C0.24,-0.418 0.274,-0.444 0.302,-0.459C0.331,-0.474 0.358,-0.481 0.385,-0.481C0.425,-0.481 0.457,-0.468 0.479,-0.441C0.501,-0.414 0.515,-0.378 0.52,-0.333L0.55,-0.072C0.551,-0.062 0.553,-0.055 0.556,-0.05C0.559,-0.045 0.565,-0.042 0.572,-0.04L0.593,-0.035C0.598,-0.033 0.602,-0.031 0.605,-0.028C0.608,-0.024 0.61,-0.021 0.61,-0.017C0.61,-0.012 0.608,-0.008 0.604,-0.005C0.601,-0.002 0.595,-0 0.587,-0L0.407,-0C0.391,-0 0.384,-0.006 0.384,-0.018C0.384,-0.026 0.389,-0.031 0.399,-0.035L0.422,-0.04C0.429,-0.042 0.435,-0.045 0.439,-0.05C0.443,-0.055 0.444,-0.062 0.443,-0.072L0.414,-0.317C0.41,-0.35 0.401,-0.375 0.388,-0.392C0.375,-0.408 0.355,-0.416 0.33,-0.417C0.314,-0.416 0.297,-0.412 0.279,-0.403C0.261,-0.394 0.241,-0.381 0.22,-0.363L0.198,-0.344Z" style="fill-rule:nonzero;"/>
        </g>
        <g transform="matrix(54.1667,0,0,54.1667,55.6031,39.9479)">
            <path d="M0.41,-0.082L0.407,-0.086L0.407,-0.64C0.407,-0.647 0.405,-0.653 0.403,-0.656C0.4,-0.66 0.396,-0.662 0.39,-0.663L0.356,-0.664C0.35,-0.665 0.346,-0.666 0.344,-0.669C0.341,-0.671 0.34,-0.675 0.34,-0.679C0.34,-0.683 0.341,-0.686 0.344,-0.689C0.347,-0.692 0.352,-0.695 0.36,-0.698L0.442,-0.727C0.453,-0.731 0.461,-0.733 0.468,-0.735C0.475,-0.737 0.481,-0.738 0.487,-0.738C0.495,-0.738 0.501,-0.735 0.506,-0.731C0.51,-0.726 0.512,-0.719 0.512,-0.711L0.512,-0.07C0.512,-0.061 0.514,-0.054 0.517,-0.049C0.521,-0.045 0.526,-0.042 0.533,-0.04L0.555,-0.035C0.561,-0.033 0.565,-0.031 0.568,-0.028C0.571,-0.025 0.573,-0.021 0.573,-0.017C0.573,-0.012 0.571,-0.008 0.567,-0.005C0.563,-0.002 0.557,-0 0.55,-0L0.46,-0C0.445,-0 0.432,-0.004 0.423,-0.013C0.414,-0.022 0.41,-0.035 0.41,-0.051L0.41,-0.082ZM0.042,-0.224C0.042,-0.277 0.052,-0.322 0.073,-0.361C0.094,-0.399 0.122,-0.428 0.157,-0.45C0.192,-0.47 0.231,-0.481 0.275,-0.481C0.315,-0.481 0.35,-0.471 0.381,-0.452C0.412,-0.432 0.438,-0.404 0.457,-0.368L0.432,-0.342C0.415,-0.372 0.394,-0.395 0.37,-0.411C0.346,-0.427 0.32,-0.435 0.292,-0.435C0.266,-0.435 0.242,-0.427 0.221,-0.413C0.2,-0.398 0.183,-0.376 0.171,-0.347C0.159,-0.318 0.153,-0.281 0.153,-0.236C0.153,-0.194 0.158,-0.159 0.17,-0.13C0.182,-0.102 0.198,-0.08 0.219,-0.066C0.239,-0.052 0.262,-0.045 0.288,-0.045C0.315,-0.045 0.341,-0.052 0.365,-0.068C0.389,-0.084 0.412,-0.107 0.432,-0.139L0.448,-0.112C0.422,-0.073 0.392,-0.043 0.358,-0.021C0.324,0.001 0.287,0.012 0.247,0.012C0.207,0.012 0.172,0.001 0.141,-0.019C0.11,-0.039 0.086,-0.067 0.068,-0.102C0.05,-0.137 0.042,-0.178 0.042,-0.224Z" style="fill-rule:nonzero;"/>
        </g>
        <g transform="matrix(54.1667,0,0,54.1667,88.5094,39.9479)">
            <path d="M0.213,-0.451L0.213,-0.07C0.213,-0.061 0.214,-0.054 0.218,-0.049C0.221,-0.045 0.226,-0.042 0.233,-0.04L0.255,-0.035C0.261,-0.033 0.265,-0.031 0.268,-0.028C0.271,-0.025 0.273,-0.021 0.273,-0.017C0.273,-0.012 0.271,-0.008 0.267,-0.005C0.263,-0.002 0.258,-0 0.25,-0L0.068,-0C0.06,-0 0.055,-0.002 0.051,-0.005C0.047,-0.008 0.046,-0.012 0.046,-0.017C0.046,-0.021 0.047,-0.024 0.05,-0.028C0.053,-0.031 0.057,-0.033 0.063,-0.035L0.087,-0.04C0.093,-0.042 0.098,-0.045 0.102,-0.049C0.105,-0.054 0.107,-0.061 0.107,-0.07L0.107,-0.379C0.107,-0.387 0.105,-0.392 0.103,-0.396C0.1,-0.399 0.096,-0.401 0.09,-0.402L0.057,-0.403C0.05,-0.404 0.046,-0.406 0.044,-0.408C0.041,-0.411 0.04,-0.414 0.04,-0.418C0.04,-0.422 0.041,-0.426 0.044,-0.429C0.047,-0.432 0.052,-0.434 0.06,-0.437L0.143,-0.466C0.154,-0.47 0.162,-0.473 0.169,-0.475C0.175,-0.476 0.181,-0.477 0.186,-0.477C0.195,-0.477 0.201,-0.475 0.206,-0.47C0.21,-0.465 0.213,-0.459 0.213,-0.451ZM0.148,-0.57C0.126,-0.57 0.109,-0.576 0.095,-0.588C0.082,-0.6 0.075,-0.615 0.075,-0.634C0.075,-0.653 0.082,-0.668 0.095,-0.68C0.109,-0.692 0.126,-0.698 0.148,-0.698C0.17,-0.698 0.188,-0.692 0.201,-0.68C0.215,-0.668 0.222,-0.653 0.222,-0.634C0.222,-0.615 0.215,-0.6 0.201,-0.588C0.188,-0.576 0.17,-0.57 0.148,-0.57Z" style="fill-rule:nonzero;"/>
        </g>
        <g transform="matrix(54.1667,0,0,54.1667,104.922,39.9479)">
            <path d="M0.483,-0.293C0.483,-0.277 0.478,-0.265 0.469,-0.257C0.46,-0.249 0.446,-0.245 0.429,-0.245L0.109,-0.245L0.109,-0.278L0.35,-0.278C0.366,-0.278 0.375,-0.285 0.375,-0.3C0.375,-0.344 0.365,-0.379 0.346,-0.404C0.326,-0.429 0.3,-0.441 0.268,-0.441C0.243,-0.441 0.22,-0.434 0.201,-0.419C0.182,-0.405 0.167,-0.384 0.156,-0.358C0.145,-0.331 0.139,-0.3 0.139,-0.265C0.139,-0.198 0.155,-0.148 0.187,-0.114C0.219,-0.08 0.26,-0.063 0.312,-0.063C0.345,-0.063 0.374,-0.07 0.398,-0.085C0.422,-0.099 0.44,-0.119 0.45,-0.143C0.454,-0.149 0.457,-0.153 0.46,-0.155C0.463,-0.157 0.466,-0.158 0.47,-0.158C0.475,-0.158 0.478,-0.156 0.48,-0.152C0.482,-0.148 0.483,-0.143 0.483,-0.138C0.481,-0.111 0.471,-0.086 0.453,-0.063C0.435,-0.04 0.411,-0.022 0.381,-0.009C0.351,0.005 0.318,0.012 0.28,0.012C0.233,0.012 0.191,0.002 0.155,-0.018C0.119,-0.038 0.092,-0.065 0.072,-0.101C0.052,-0.137 0.042,-0.179 0.042,-0.227C0.042,-0.275 0.051,-0.319 0.071,-0.357C0.09,-0.395 0.118,-0.426 0.154,-0.448C0.19,-0.47 0.232,-0.481 0.282,-0.481C0.323,-0.481 0.359,-0.473 0.389,-0.457C0.419,-0.441 0.442,-0.419 0.458,-0.391C0.474,-0.363 0.483,-0.33 0.483,-0.293Z" style="fill-rule:nonzero;"/>
        </g>
        <g transform="matrix(54.1667,0,0,54.1667,7.85519,85.7812)">
            <path d="M0.653,-0.169C0.653,-0.119 0.631,-0.079 0.589,-0.047C0.546,-0.016 0.483,-0 0.399,-0L0.081,-0C0.073,-0 0.067,-0.002 0.063,-0.005C0.058,-0.008 0.057,-0.013 0.057,-0.019C0.057,-0.029 0.063,-0.035 0.076,-0.039L0.109,-0.045C0.116,-0.047 0.123,-0.05 0.127,-0.055C0.131,-0.059 0.134,-0.065 0.134,-0.072L0.134,-0.628C0.134,-0.635 0.131,-0.641 0.127,-0.645C0.123,-0.65 0.116,-0.653 0.109,-0.655L0.076,-0.661C0.063,-0.665 0.057,-0.672 0.057,-0.682C0.057,-0.688 0.058,-0.692 0.063,-0.695C0.067,-0.698 0.073,-0.7 0.081,-0.7L0.329,-0.7C0.389,-0.7 0.441,-0.692 0.483,-0.675C0.525,-0.658 0.558,-0.635 0.58,-0.605C0.602,-0.575 0.613,-0.54 0.613,-0.501C0.613,-0.467 0.603,-0.437 0.585,-0.411C0.567,-0.384 0.54,-0.363 0.504,-0.347C0.467,-0.331 0.422,-0.324 0.367,-0.324L0.398,-0.338C0.45,-0.338 0.495,-0.33 0.533,-0.316C0.571,-0.301 0.601,-0.281 0.622,-0.256C0.642,-0.231 0.653,-0.202 0.653,-0.169ZM0.353,-0.31L0.216,-0.31L0.216,-0.344L0.346,-0.344C0.378,-0.344 0.406,-0.35 0.429,-0.362C0.452,-0.374 0.469,-0.391 0.481,-0.414C0.493,-0.437 0.499,-0.464 0.499,-0.495C0.499,-0.528 0.491,-0.558 0.477,-0.583C0.463,-0.608 0.442,-0.627 0.415,-0.641C0.387,-0.655 0.353,-0.662 0.312,-0.662L0.251,-0.662L0.251,-0.083C0.251,-0.068 0.255,-0.056 0.265,-0.049C0.275,-0.042 0.29,-0.038 0.31,-0.038L0.376,-0.038C0.411,-0.038 0.44,-0.044 0.463,-0.055C0.486,-0.066 0.504,-0.082 0.516,-0.102C0.528,-0.122 0.534,-0.145 0.534,-0.172C0.534,-0.213 0.518,-0.246 0.488,-0.272C0.458,-0.297 0.413,-0.31 0.353,-0.31Z" style="fill-rule:nonzero;"/>
        </g>
        <g transform="matrix(54.1667,0,0,54.1667,44.6344,85.7812)">
            <path d="M0.483,-0.293C0.483,-0.277 0.478,-0.265 0.469,-0.257C0.46,-0.249 0.446,-0.245 0.429,-0.245L0.109,-0.245L0.109,-0.278L0.35,-0.278C0.366,-0.278 0.375,-0.285 0.375,-0.3C0.375,-0.344 0.365,-0.379 0.346,-0.404C0.326,-0.429 0.3,-0.441 0.268,-0.441C0.243,-0.441 0.22,-0.434 0.201,-0.419C0.182,-0.405 0.167,-0.384 0.156,-0.358C0.145,-0.331 0.139,-0.3 0.139,-0.265C0.139,-0.198 0.155,-0.148 0.187,-0.114C0.219,-0.08 0.26,-0.063 0.312,-0.063C0.345,-0.063 0.374,-0.07 0.398,-0.085C0.422,-0.099 0.44,-0.119 0.45,-0.143C0.454,-0.149 0.457,-0.153 0.46,-0.155C0.463,-0.157 0.466,-0.158 0.47,-0.158C0.475,-0.158 0.478,-0.156 0.48,-0.152C0.482,-0.148 0.483,-0.143 0.483,-0.138C0.481,-0.111 0.471,-0.086 0.453,-0.063C0.435,-0.04 0.411,-0.022 0.381,-0.009C0.351,0.005 0.318,0.012 0.28,0.012C0.233,0.012 0.191,0.002 0.155,-0.018C0.119,-0.038 0.092,-0.065 0.072,-0.101C0.052,-0.137 0.042,-0.179 0.042,-0.227C0.042,-0.275 0.051,-0.319 0.071,-0.357C0.09,-0.395 0.118,-0.426 0.154,-0.448C0.19,-0.47 0.232,-0.481 0.282,-0.481C0.323,-0.481 0.359,-0.473 0.389,-0.457C0.419,-0.441 0.442,-0.419 0.458,-0.391C0.474,-0.363 0.483,-0.33 0.483,-0.293Z" style="fill-rule:nonzero;"/>
        </g>
        <g transform="matrix(54.1667,0,0,54.1667,72.9906,85.7812)">
            <path d="M0.483,-0.293C0.483,-0.277 0.478,-0.265 0.469,-0.257C0.46,-0.249 0.446,-0.245 0.429,-0.245L0.109,-0.245L0.109,-0.278L0.35,-0.278C0.366,-0.278 0.375,-0.285 0.375,-0.3C0.375,-0.344 0.365,-0.379 0.346,-0.404C0.326,-0.429 0.3,-0.441 0.268,-0.441C0.243,-0.441 0.22,-0.434 0.201,-0.419C0.182,-0.405 0.167,-0.384 0.156,-0.358C0.145,-0.331 0.139,-0.3 0.139,-0.265C0.139,-0.198 0.155,-0.148 0.187,-0.114C0.219,-0.08 0.26,-0.063 0.312,-0.063C0.345,-0.063 0.374,-0.07 0.398,-0.085C0.422,-0.099 0.44,-0.119 0.45,-0.143C0.454,-0.149 0.457,-0.153 0.46,-0.155C0.463,-0.157 0.466,-0.158 0.47,-0.158C0.475,-0.158 0.478,-0.156 0.48,-0.152C0.482,-0.148 0.483,-0.143 0.483,-0.138C0.481,-0.111 0.471,-0.086 0.453,-0.063C0.435,-0.04 0.411,-0.022 0.381,-0.009C0.351,0.005 0.318,0.012 0.28,0.012C0.233,0.012 0.191,0.002 0.155,-0.018C0.119,-0.038 0.092,-0.065 0.072,-0.101C0.052,-0.137 0.042,-0.179 0.042,-0.227C0.042,-0.275 0.051,-0.319 0.071,-0.357C0.09,-0.395 0.118,-0.426 0.154,-0.448C0.19,-0.47 0.232,-0.481 0.282,-0.481C0.323,-0.481 0.359,-0.473 0.389,-0.457C0.419,-0.441 0.442,-0.419 0.458,-0.391C0.474,-0.363 0.483,-0.33 0.483,-0.293Z" style="fill-rule:nonzero;"/>
        </g>
        <g transform="matrix(54.1667,0,0,54.1667,101.347,85.7812)">
            <path d="M0.25,-0.026C0.275,-0.026 0.294,-0.033 0.309,-0.046C0.323,-0.058 0.33,-0.075 0.33,-0.096C0.33,-0.109 0.327,-0.12 0.321,-0.13C0.315,-0.14 0.304,-0.15 0.289,-0.158C0.273,-0.167 0.25,-0.175 0.221,-0.182C0.175,-0.193 0.138,-0.206 0.112,-0.221C0.086,-0.236 0.068,-0.254 0.057,-0.274C0.046,-0.294 0.041,-0.316 0.041,-0.339C0.041,-0.382 0.056,-0.416 0.087,-0.442C0.117,-0.468 0.161,-0.481 0.218,-0.481C0.239,-0.481 0.256,-0.479 0.27,-0.475C0.283,-0.471 0.295,-0.468 0.304,-0.464C0.313,-0.46 0.321,-0.459 0.328,-0.459C0.335,-0.459 0.34,-0.46 0.343,-0.464C0.346,-0.468 0.35,-0.471 0.353,-0.475C0.356,-0.479 0.361,-0.481 0.367,-0.481C0.371,-0.481 0.375,-0.48 0.378,-0.477C0.381,-0.474 0.384,-0.469 0.387,-0.462L0.423,-0.357C0.426,-0.348 0.427,-0.34 0.426,-0.334C0.425,-0.328 0.421,-0.324 0.415,-0.321C0.409,-0.319 0.403,-0.319 0.399,-0.321C0.394,-0.323 0.39,-0.328 0.386,-0.335C0.371,-0.362 0.355,-0.383 0.338,-0.399C0.32,-0.415 0.302,-0.426 0.283,-0.433C0.263,-0.44 0.243,-0.443 0.223,-0.443C0.191,-0.443 0.168,-0.436 0.152,-0.423C0.136,-0.41 0.128,-0.392 0.128,-0.37C0.128,-0.357 0.131,-0.345 0.138,-0.334C0.145,-0.323 0.157,-0.313 0.175,-0.304C0.193,-0.295 0.218,-0.286 0.25,-0.278C0.291,-0.268 0.324,-0.256 0.348,-0.242C0.372,-0.228 0.389,-0.211 0.4,-0.192C0.41,-0.172 0.416,-0.149 0.416,-0.123C0.416,-0.097 0.409,-0.073 0.396,-0.053C0.382,-0.033 0.363,-0.017 0.339,-0.005C0.315,0.006 0.287,0.012 0.255,0.012C0.234,0.012 0.217,0.01 0.205,0.006C0.192,0.001 0.181,-0.003 0.173,-0.007C0.165,-0.011 0.157,-0.014 0.149,-0.014C0.142,-0.014 0.137,-0.011 0.133,-0.007C0.129,-0.003 0.125,0.001 0.122,0.006C0.118,0.01 0.114,0.012 0.108,0.012C0.104,0.012 0.101,0.011 0.098,0.008C0.095,0.005 0.093,0 0.092,-0.007L0.07,-0.106C0.068,-0.118 0.067,-0.127 0.068,-0.133C0.069,-0.138 0.073,-0.142 0.079,-0.145C0.085,-0.147 0.09,-0.146 0.095,-0.143C0.099,-0.14 0.104,-0.134 0.109,-0.126C0.128,-0.09 0.15,-0.065 0.174,-0.049C0.198,-0.034 0.224,-0.026 0.25,-0.026Z" style="fill-rule:nonzero;"/>
        </g>
    </g>
</svg>
